HIERARCHY
ROOT Hips
{
	OFFSET -0.001795 -0.223333 0.028219
	CHANNELS 6 Xposition Yposition Zposition Zrotation Yrotation Xrotation 
	JOINT LeftUpLeg
	{
		OFFSET 0.069520 -0.091406 -0.006815
		CHANNELS 3 Zrotation Yrotation Xrotation
		JOINT LeftLeg
		{
			OFFSET 0.034277 -0.375199 -0.004496
			CHANNELS 3 Zrotation Yrotation Xrotation
			JOINT LeftFoot
			{
				OFFSET -0.013596 -0.397961 -0.043693
				CHANNELS 3 Zrotation Yrotation Xrotation
				JOINT LeftToe
				{
					OFFSET 0.026358 -0.055791 0.119288
					CHANNELS 3 Zrotation Yrotation Xrotation
					End Site
					{
						OFFSET 0.000000 0.000000 0.000000
					}
				}
			}
		}
	}
	JOINT RightUpLeg
	{
		OFFSET -0.067670 -0.090522 -0.004320
		CHANNELS 3 Zrotation Yrotation Xrotation
		JOINT RightLeg
		{
			OFFSET -0.038290 -0.382569 -0.008850
			CHANNELS 3 Zrotation Yrotation Xrotation
			JOINT RightFoot
			{
				OFFSET 0.015774 -0.398415 -0.042312
				CHANNELS 3 Zrotation Yrotation Xrotation
				JOINT RightToe
				{
					OFFSET -0.025372 -0.048144 0.123348
					CHANNELS 3 Zrotation Yrotation Xrotation
					End Site
					{
						OFFSET 0.000000 0.000000 0.000000
					}
				}
			}
		}
	}
	JOINT Spine
	{
		OFFSET -0.002533 0.108963 -0.026696
		CHANNELS 3 Zrotation Yrotation Xrotation
		JOINT Spine1
		{
			OFFSET 0.005487 0.135180 0.001092
			CHANNELS 3 Zrotation Yrotation Xrotation
			JOINT Spine2
			{
				OFFSET 0.001457 0.052922 0.025425
				CHANNELS 3 Zrotation Yrotation Xrotation
				JOINT Neck
				{
					OFFSET -0.002778 0.213870 -0.042857
					CHANNELS 3 Zrotation Yrotation Xrotation
					JOINT Head
					{
						OFFSET 0.005152 0.064970 0.051349
						CHANNELS 3 Zrotation Yrotation Xrotation
						End Site
						{
							OFFSET 0.000000 0.000000 0.000000
						}
					}
				}
				JOINT LeftShoulder
				{
					OFFSET 0.078845 0.121749 -0.034090
					CHANNELS 3 Zrotation Yrotation Xrotation
					JOINT LeftArm
					{
						OFFSET 0.090977 0.030469 -0.008868
						CHANNELS 3 Zrotation Yrotation Xrotation
						JOINT LeftForeArm
						{
							OFFSET 0.259612 -0.012772 -0.027456
							CHANNELS 3 Zrotation Yrotation Xrotation
							JOINT LeftHand
							{
								OFFSET 0.249234 0.008986 -0.001171
								CHANNELS 3 Zrotation Yrotation Xrotation
								End Site
								{
									OFFSET 0.000000 0.000000 0.000000
								}
							}
						}
					}
				}
				JOINT RightShoulder
				{
					OFFSET -0.081759 0.118833 -0.038615
					CHANNELS 3 Zrotation Yrotation Xrotation
					JOINT RightArm
					{
						OFFSET -0.096012 0.032551 -0.009143
						CHANNELS 3 Zrotation Yrotation Xrotation
						JOINT RightForeArm
						{
							OFFSET -0.253742 -0.013329 -0.021401
							CHANNELS 3 Zrotation Yrotation Xrotation
							JOINT RightHand
							{
								OFFSET -0.255298 0.007772 -0.005559
								CHANNELS 3 Zrotation Yrotation Xrotation
								End Site
								{
									OFFSET 0.000000 0.000000 0.000000
								}
							}
						}
					}
				}
			}
		}
	}
}
MOTION
Frames: 10
Frame Time: 0.050000
-0.026541 0.949251 0.851152 -6.143124 59.472241 -9.069061 -11.884536 -0.799148 -5.429024 20.253945 -10.501103 20.637570 -4.074724 -32.586876 -11.912831 0.000000 0.000000 0.000000 3.614012 0.786720 -10.649738 -18.196282 -10.948543 60.743077 11.569185 15.236027 21.898360 0.000000 0.000000 0.000000 0.139190 -0.097918 2.940843 -4.248208 1.099335 -0.018658 3.448885 3.258754 0.705489 -2.164784 3.977451 -8.251660 0.000000 0.000000 0.000000 -23.011049 0.100082 -13.139328 -43.037042 14.402897 -7.778998 -18.270546 -23.482024 2.673148 0.000000 0.000000 0.000000 24.593723 0.904560 9.341107 48.848658 14.848599 -1.425313 5.024927 23.335455 2.331020 0.000000 0.000000 0.000000 
-0.015406 0.956041 0.869470 -13.856970 73.852917 -16.315007 -12.711181 -0.651908 -4.125661 27.244306 -12.715331 15.928699 -10.350839 -44.883723 -7.347092 0.000000 0.000000 0.000000 4.426515 0.212373 -14.782577 -33.502845 -8.670967 62.816091 12.808833 20.170802 14.561507 0.000000 0.000000 0.000000 -0.070544 -0.096366 3.089358 -4.076948 0.324599 -0.296124 1.975967 5.201814 -0.362857 0.195362 2.920934 -8.623631 0.000000 0.000000 0.000000 -20.249649 0.337157 -15.163476 -43.365482 16.625864 -8.740962 -20.642368 -26.257121 2.632408 0.000000 0.000000 0.000000 28.720748 -3.473868 11.696880 45.970540 16.975865 -2.409705 4.402728 25.108373 2.487477 0.000000 0.000000 0.000000 
-0.004682 0.962255 0.882991 -88.397696 85.742949 -90.489509 -11.930782 -0.307581 -1.709833 26.129426 -7.861363 8.223461 -28.367255 -47.980228 12.814361 0.000000 0.000000 0.000000 3.534445 -1.147656 -16.154520 -41.256548 -10.169697 58.852153 16.900347 24.360116 14.182362 0.000000 0.000000 0.000000 0.055291 -0.064655 2.491773 -3.965691 -0.455278 -1.754935 1.245602 5.648035 1.815958 0.506684 3.439312 -9.810449 0.000000 0.000000 0.000000 -18.529263 -0.978387 -17.820840 -44.317278 17.716643 -9.549551 -21.559994 -26.294019 2.104622 0.000000 0.000000 0.000000 29.360194 -5.120283 15.293914 42.941150 20.125264 -2.501971 4.431494 25.849068 2.316110 0.000000 0.000000 0.000000 
0.003797 0.967158 0.894186 -159.399862 75.510253 -162.206135 -10.941001 -0.292865 -0.641635 21.158211 -4.923915 7.526306 -35.712076 -34.963939 24.367689 0.000000 0.000000 0.000000 3.806526 -2.445206 -17.271863 -50.712523 -11.534673 55.887579 27.035404 30.117110 17.981915 0.000000 0.000000 0.000000 0.220428 -0.077538 2.838094 -3.253463 -1.368523 -3.191111 0.821944 5.001186 5.062781 1.722096 3.025097 -10.128946 0.000000 0.000000 0.000000 -18.470342 -2.403591 -22.695578 -44.080680 22.071507 -10.847651 -23.822972 -27.213493 2.066378 0.000000 0.000000 0.000000 28.946536 -6.848756 18.025670 44.445012 23.493344 -1.354072 1.636458 28.677432 1.749841 0.000000 0.000000 0.000000 
0.009714 0.969262 0.904441 -166.188459 61.697962 -169.638035 -8.583552 -0.431633 0.398798 11.708238 -1.795811 7.227267 -23.835036 -9.934074 21.285002 0.000000 0.000000 0.000000 4.820141 -3.318130 -17.222977 -54.118082 -15.015759 53.213267 42.035684 32.041213 23.389108 0.000000 0.000000 0.000000 0.882514 -0.099366 3.090407 -2.332110 -2.075605 -5.622579 0.470747 5.521864 7.402910 2.385626 2.712178 -12.280881 0.000000 0.000000 0.000000 -15.642672 -4.358581 -27.214019 -45.435292 26.124286 -13.490851 -25.986051 -25.391620 1.459232 0.000000 0.000000 0.000000 28.661741 -7.383374 23.164446 44.045531 26.076493 -0.405765 -2.778186 28.866523 -0.095349 0.000000 0.000000 0.000000 
0.014649 0.969135 0.913618 -169.241769 46.745550 -173.393138 -6.530820 -1.239677 2.285158 2.781113 -2.032610 7.225534 6.594731 -1.744204 15.344458 0.000000 0.000000 0.000000 4.869963 -4.774635 -17.050264 -56.464869 -18.895289 51.919402 55.552391 24.288816 29.265219 0.000000 0.000000 0.000000 1.374166 -0.134137 3.095990 -2.938248 -3.791119 -6.656624 1.182769 6.078068 8.395960 0.696789 0.482922 -13.394953 0.000000 0.000000 0.000000 -12.984378 -7.880346 -35.128276 -44.943879 34.091654 -16.830468 -27.931911 -23.535737 0.841991 0.000000 0.000000 0.000000 28.375891 -9.962605 28.526041 43.320993 30.917383 1.622863 -7.070480 26.570613 -1.808821 0.000000 0.000000 0.000000 
0.019729 0.966760 0.921261 -170.575765 35.315078 -174.836473 -5.642066 -2.022740 2.962741 -1.707873 -3.651174 6.576339 34.310377 -7.682783 19.659921 0.000000 0.000000 0.000000 3.148923 -6.406718 -15.718346 -48.918490 -20.381660 45.326519 66.092802 9.449009 27.492647 0.000000 0.000000 0.000000 1.751334 -0.184729 3.271522 -3.350563 -5.187700 -7.805172 1.657234 7.322711 9.690019 0.542999 -3.936455 -14.728017 0.000000 0.000000 0.000000 -10.430990 -11.297339 -47.230804 -38.196349 43.443618 -16.479705 -33.791808 -18.306244 0.474474 0.000000 0.000000 0.000000 28.483777 -12.711705 36.409250 40.008466 37.704010 3.244539 -11.346618 24.443180 -3.201648 0.000000 0.000000 0.000000 
0.024786 0.964174 0.926984 -170.822693 22.444334 -175.872265 -4.431308 -3.124513 3.361476 -1.708528 -4.490212 5.946971 55.250654 -23.408572 19.483869 0.000000 0.000000 0.000000 3.535246 -7.863508 -16.136132 -46.665852 -22.039367 42.233976 83.400692 -9.759217 23.175350 0.000000 0.000000 0.000000 1.856594 -0.233096 3.262282 -3.167121 -7.435071 -8.370016 2.029019 8.859227 10.513086 -1.791219 -12.008339 -16.359398 0.000000 0.000000 0.000000 -3.476028 -13.353936 -70.519959 -19.263038 60.913979 -10.067057 -39.629151 -7.980608 -2.644245 0.000000 0.000000 0.000000 27.049310 -18.137791 49.016482 33.163777 47.980142 4.784171 -16.437234 20.520186 -4.084305 0.000000 0.000000 0.000000 
0.028867 0.959606 0.931723 -171.526595 10.963081 -176.086165 -3.691579 -4.235531 3.519667 -3.055801 -6.071201 4.902005 90.382088 -42.244510 8.624204 0.000000 0.000000 0.000000 2.647811 -10.554930 -16.836960 -40.155001 -22.697432 38.585951 101.223595 -22.534017 10.768267 0.000000 0.000000 0.000000 1.755388 -0.317519 2.383820 -4.047130 -10.185173 -8.189974 3.088306 11.129019 11.138064 -6.954581 -25.558989 -13.975385 0.000000 0.000000 0.000000 9.999131 -5.824404 -123.059163 72.167428 49.054122 47.851729 -39.829950 20.101571 -13.428702 0.000000 0.000000 0.000000 21.739254 -26.130105 73.440503 4.116470 64.176895 -6.176142 -22.065747 10.428535 -3.176260 0.000000 0.000000 0.000000 
0.032180 0.956352 0.936191 -172.089671 2.372721 -175.700538 -3.962429 -4.641382 3.403636 -2.549740 -6.672451 4.260689 137.526288 -50.650914 -18.379264 0.000000 0.000000 0.000000 2.688448 -13.601538 -18.913280 -37.860732 -22.409176 35.850366 126.116213 -32.217009 -3.877776 0.000000 0.000000 0.000000 2.229240 -0.552414 1.139827 -4.390645 -12.051449 -8.101336 3.022521 13.707151 12.775918 -9.418389 -34.629868 -13.872887 0.000000 0.000000 0.000000 11.935266 16.515702 164.507940 88.328060 -19.789999 1.556945 11.095453 40.056431 -1.719645 0.000000 0.000000 0.000000 5.435324 -27.773745 120.842973 -75.104580 55.945864 -48.114394 -24.219203 -12.410438 0.814814 0.000000 0.000000 0.000000 
